<?xml version="1.0" encoding="UTF-8"?>
<svg width="477px" height="342px" viewBox="0 0 477 342" version="1.1" xmlns="http://www.w3.org/2000/svg" xmlns:xlink="http://www.w3.org/1999/xlink">
    <title>Group</title>
    <defs>
        <linearGradient x1="0%" y1="50%" x2="100%" y2="50%" id="linearGradient-1">
            <stop stop-color="#8199D9" offset="0%"></stop>
            <stop stop-color="#4A60B2" offset="100%"></stop>
        </linearGradient>
        <linearGradient x1="0%" y1="50%" x2="100%" y2="50%" id="linearGradient-2">
            <stop stop-color="#8199D9" offset="0%"></stop>
            <stop stop-color="#4A60B2" offset="100%"></stop>
        </linearGradient>
        <linearGradient x1="0%" y1="50%" x2="100%" y2="50%" id="linearGradient-3">
            <stop stop-color="#8199D9" offset="0%"></stop>
            <stop stop-color="#4A60B2" offset="100%"></stop>
        </linearGradient>
        <linearGradient x1="0%" y1="50%" x2="100%" y2="50%" id="linearGradient-4">
            <stop stop-color="#D981B2" offset="0%"></stop>
            <stop stop-color="#B24A7A" offset="100%"></stop>
        </linearGradient>
        <linearGradient x1="0%" y1="50%" x2="100%" y2="50%" id="linearGradient-5">
            <stop stop-color="#D981B2" offset="0%"></stop>
            <stop stop-color="#B24A7A" offset="100%"></stop>
        </linearGradient>
        <linearGradient x1="0%" y1="50%" x2="100%" y2="50%" id="linearGradient-6">
            <stop stop-color="#D981B2" offset="0%"></stop>
            <stop stop-color="#B24A7A" offset="100%"></stop>
        </linearGradient>
        <linearGradient x1="0%" y1="50%" x2="100%" y2="50%" id="linearGradient-7">
            <stop stop-color="#F9DC28" offset="0%"></stop>
            <stop stop-color="#F1B612" offset="100%"></stop>
        </linearGradient>
        <linearGradient x1="0%" y1="50%" x2="100%" y2="50%" id="linearGradient-8">
            <stop stop-color="#F9DC28" offset="0%"></stop>
            <stop stop-color="#F1B612" offset="100%"></stop>
        </linearGradient>
        <linearGradient x1="0%" y1="50%" x2="100%" y2="50%" id="linearGradient-9">
            <stop stop-color="#F9DC28" offset="0%"></stop>
            <stop stop-color="#F1B612" offset="100%"></stop>
        </linearGradient>
        <linearGradient x1="0%" y1="50%" x2="100%" y2="50%" id="linearGradient-10">
            <stop stop-color="#8FD981" offset="0%"></stop>
            <stop stop-color="#57B24A" offset="100%"></stop>
        </linearGradient>
        <linearGradient x1="0%" y1="50%" x2="100%" y2="50%" id="linearGradient-11">
            <stop stop-color="#8FD981" offset="0%"></stop>
            <stop stop-color="#57B24A" offset="100%"></stop>
        </linearGradient>
        <linearGradient x1="0%" y1="50%" x2="100%" y2="50%" id="linearGradient-12">
            <stop stop-color="#8FD981" offset="0%"></stop>
            <stop stop-color="#57B24A" offset="100%"></stop>
        </linearGradient>
        <linearGradient x1="0%" y1="50%" x2="100%" y2="50%" id="linearGradient-13">
            <stop stop-color="#81D9D6" offset="0%"></stop>
            <stop stop-color="#4AB2AD" offset="100%"></stop>
        </linearGradient>
        <linearGradient x1="0%" y1="50%" x2="100%" y2="50%" id="linearGradient-14">
            <stop stop-color="#81D9D6" offset="0%"></stop>
            <stop stop-color="#4AB2AD" offset="100%"></stop>
        </linearGradient>
        <linearGradient x1="0%" y1="50%" x2="100%" y2="50%" id="linearGradient-15">
            <stop stop-color="#81D9D6" offset="0%"></stop>
            <stop stop-color="#4AB2AD" offset="100%"></stop>
        </linearGradient>
        <linearGradient x1="0%" y1="50%" x2="100%" y2="50%" id="linearGradient-16">
            <stop stop-color="#FFC600" offset="0%"></stop>
            <stop stop-color="#FD9400" offset="100%"></stop>
        </linearGradient>
        <linearGradient x1="0%" y1="50%" x2="100%" y2="50%" id="linearGradient-17">
            <stop stop-color="#FFC600" offset="0%"></stop>
            <stop stop-color="#FD9400" offset="100%"></stop>
        </linearGradient>
        <linearGradient x1="0%" y1="50%" x2="100%" y2="50%" id="linearGradient-18">
            <stop stop-color="#FFC600" offset="0%"></stop>
            <stop stop-color="#FD9400" offset="100%"></stop>
        </linearGradient>
    </defs>
    <g id="Page-1" stroke="none" stroke-width="1" fill="none" fill-rule="evenodd">
        <g id="Group" transform="translate(-0.2282, 0.0825)">
            <path d="M69.9863138,129.769645 L76.795773,290.621699 C76.8896997,292.840422 75.1583079,294.710944 72.9389505,294.788445 L13.9751107,296.847508 C11.7788639,296.924203 9.93204079,295.214747 9.83909217,293.019128 L3.02712836,132.107911 L69.9863138,129.769645 Z M43.0122034,205.741457 C39.5562034,205.741457 36.2922034,206.329457 33.2202034,207.505457 C30.1482034,208.681457 27.4602034,210.373457 25.1562034,212.581457 C22.8522034,214.789457 21.0282034,217.441457 19.6842034,220.537457 C18.3402034,223.633457 17.6682034,227.101457 17.6682034,230.941457 C17.6682034,234.685457 18.3162034,238.105457 19.6122034,241.201457 C20.9082034,244.297457 22.7082034,246.949457 25.0122034,249.157457 C27.3162034,251.365457 30.0522034,253.081457 33.2202034,254.305457 C36.3882034,255.529457 39.8442034,256.141457 43.5882034,256.141457 C46.3722034,256.141457 48.8442034,255.853457 51.0042034,255.277457 C53.1642034,254.701457 55.0122034,254.077457 56.5482034,253.405457 C58.3242034,252.589457 59.8602034,251.653457 61.1562034,250.597457 L53.5962034,237.277457 C52.8762034,237.997457 52.0362034,238.621457 51.0762034,239.149457 C50.2602034,239.629457 49.2522034,240.061457 48.0522034,240.445457 C46.8522034,240.829457 45.4842034,241.021457 43.9482034,241.021457 C42.4122034,241.021457 40.9962034,240.757457 39.7002034,240.229457 C38.4042034,239.701457 37.2762034,238.981457 36.3162034,238.069457 C35.3562034,237.157457 34.6002034,236.089457 34.0482034,234.865457 C33.4962034,233.641457 33.2202034,232.333457 33.2202034,230.941457 C33.2202034,229.549457 33.4842034,228.241457 34.0122034,227.017457 C34.5402034,225.793457 35.2722034,224.725457 36.2082034,223.813457 C37.1442034,222.901457 38.2362034,222.181457 39.4842034,221.653457 C40.7322034,221.125457 42.1002034,220.861457 43.5882034,220.861457 C45.0282034,220.861457 46.3122034,221.041457 47.4402034,221.401457 C48.5682034,221.761457 49.5402034,222.133457 50.3562034,222.517457 C51.2682034,223.045457 52.1082034,223.597457 52.8762034,224.173457 L60.4362034,210.853457 C59.1402034,209.941457 57.6042034,209.101457 55.8282034,208.333457 C54.2922034,207.661457 52.4562034,207.061457 50.3202034,206.533457 C48.1842034,206.005457 45.7482034,205.741457 43.0122034,205.741457 Z" id="Combined-Shape" fill="url(#linearGradient-1)"></path>
            <rect id="Rectangle-51" fill="url(#linearGradient-2)" transform="translate(35.4772, 107.9567) rotate(-2) translate(-35.4772, -107.9567)" x="1.97718591" y="96.9567487" width="67" height="22"></rect>
            <path d="M13,68.9738056 L56,68.9738056 C61.6568542,68.9738056 64.4852814,68.9738056 66.2426407,70.7311649 C66.2426407,70.7311649 66.2426407,70.7311649 66.2426407,70.7311649 C68,72.4885242 68,75.3169513 68,80.9738056 L68,90.9738056 L1,90.9738056 L1,80.9738056 C1,75.3169513 1,72.4885242 2.75735931,70.7311649 C2.75735931,70.7311649 2.75735931,70.7311649 2.75735931,70.7311649 C4.51471863,68.9738056 7.34314575,68.9738056 13,68.9738056 Z" id="Rectangle-50" fill="url(#linearGradient-2)" transform="translate(34.5, 79.9738) rotate(-2) translate(-34.5, -79.9738)"></path>
            <path d="M29.0598355,1 L36.9388077,1 C39.6340546,1 41.9985489,2.79721823 42.7199152,5.39413682 L61.4993216,73 L4.49932164,73 L23.2787281,5.39413682 C24.0000944,2.79721823 26.3645887,1 29.0598355,1 Z" id="Rectangle-49" fill="url(#linearGradient-3)" transform="translate(32.9993, 37) rotate(-2) translate(-32.9993, -37)"></path>
            <path d="M149.759467,149.773605 L156.656753,317.641112 C156.702297,318.749559 155.836945,319.683283 154.728238,319.722 L91.7666919,321.920666 C90.667599,321.959047 89.7437276,321.102826 89.6985789,320.00399 L82.8002816,152.111871 L149.759467,149.773605 Z M116.308203,206.893457 L99.7482034,206.893457 L99.7482034,254.917457 L115.084203,254.917457 L115.084203,242.749457 L122.284203,254.917457 L140.284203,254.917457 L131.284203,239.077457 C132.484203,238.213457 133.564203,237.157457 134.524203,235.909457 C135.340203,234.805457 136.084203,233.413457 136.756203,231.733457 C137.428203,230.053457 137.764203,228.013457 137.764203,225.613457 C137.764203,222.589457 137.224203,219.913457 136.144203,217.585457 C135.064203,215.257457 133.564203,213.301457 131.644203,211.717457 C129.724203,210.133457 127.456203,208.933457 124.840203,208.117457 C122.224203,207.301457 119.380203,206.893457 116.308203,206.893457 Z M115.084203,219.853457 L115.876203,219.853457 C117.700203,219.853457 119.248203,220.261457 120.520203,221.077457 C121.792203,221.893457 122.428203,223.261457 122.428203,225.181457 C122.428203,227.101457 121.792203,228.469457 120.520203,229.285457 C119.248203,230.101457 117.700203,230.509457 115.876203,230.509457 L115.084203,230.509457 L115.084203,219.853457 Z" id="Combined-Shape" fill="url(#linearGradient-4)"></path>
            <rect id="Rectangle-47" fill="url(#linearGradient-5)" transform="translate(115.4772, 127.9567) rotate(-2) translate(-115.4772, -127.9567)" x="81.9771859" y="116.956749" width="67" height="22"></rect>
            <path d="M93,88.9738056 L136,88.9738056 C141.656854,88.9738056 144.485281,88.9738056 146.242641,90.7311649 C146.242641,90.7311649 146.242641,90.7311649 146.242641,90.7311649 C148,92.4885242 148,95.3169513 148,100.973806 L148,110.973806 L81,110.973806 L81,100.973806 C81,95.3169513 81,92.4885242 82.7573593,90.7311649 C82.7573593,90.7311649 82.7573593,90.7311649 82.7573593,90.7311649 C84.5147186,88.9738056 87.3431458,88.9738056 93,88.9738056 Z" id="Rectangle-46" fill="url(#linearGradient-5)" transform="translate(114.5, 99.9738) rotate(-2) translate(-114.5, -99.9738)"></path>
            <path d="M109.059836,21 L116.938808,21 C119.634055,21 121.998549,22.7972182 122.719915,25.3941368 L141.499322,93 L84.4993216,93 L103.278728,25.3941368 C104.000094,22.7972182 106.364589,21 109.059836,21 Z" id="Rectangle-45" fill="url(#linearGradient-6)" transform="translate(112.9993, 57) rotate(-2) translate(-112.9993, -57)"></path>
            <path d="M229.986314,169.769645 L236.879904,330.633754 C236.92746,331.743497 236.061621,332.679399 234.951537,332.718164 L171.99004,334.916828 C170.892321,334.955162 169.969101,334.101056 169.922075,333.003675 L163.027128,172.107911 L229.986314,169.769645 Z M203.964203,206.893457 L192.444203,206.893457 L174.228203,254.917457 L189.348203,254.917457 L190.932203,250.597457 L205.476203,250.597457 L207.060203,254.917457 L222.180203,254.917457 L203.964203,206.893457 Z M198.204203,231.589457 L201.444203,240.013457 L194.964203,240.013457 L198.204203,231.589457 Z" id="Combined-Shape" fill="url(#linearGradient-7)"></path>
            <rect id="Rectangle-43" fill="url(#linearGradient-8)" transform="translate(195.4772, 147.9567) rotate(-2) translate(-195.4772, -147.9567)" x="161.977186" y="136.956749" width="67" height="22"></rect>
            <path d="M173,108.973806 L216,108.973806 C221.656854,108.973806 224.485281,108.973806 226.242641,110.731165 C226.242641,110.731165 226.242641,110.731165 226.242641,110.731165 C228,112.488524 228,115.316951 228,120.973806 L228,130.973806 L161,130.973806 L161,120.973806 C161,115.316951 161,112.488524 162.757359,110.731165 C162.757359,110.731165 162.757359,110.731165 162.757359,110.731165 C164.514719,108.973806 167.343146,108.973806 173,108.973806 Z" id="Rectangle-42" fill="url(#linearGradient-8)" transform="translate(194.5, 119.9738) rotate(-2) translate(-194.5, -119.9738)"></path>
            <path d="M189.059836,41 L196.938808,41 C199.634055,41 201.998549,42.7972182 202.719915,45.3941368 L221.499322,113 L164.499322,113 L183.278728,45.3941368 C184.000094,42.7972182 186.364589,41 189.059836,41 Z" id="Rectangle-41" fill="url(#linearGradient-9)" transform="translate(192.9993, 77) rotate(-2) translate(-192.9993, -77)"></path>
            <path d="M309.986314,169.769645 L316.8836,337.637153 C316.929143,338.7456 316.063791,339.679324 314.955085,339.718041 L251.993539,341.916706 C250.894446,341.955087 249.970574,341.098866 249.925426,340.000031 L243.027128,172.107911 L309.986314,169.769645 Z M272.292203,206.893457 L255.228203,206.893457 L270.132203,234.253457 L270.132203,254.917457 L285.468203,254.917457 L285.468203,234.253457 L300.372203,206.893457 L283.308203,206.893457 L277.836203,217.045457 L272.292203,206.893457 Z" id="Combined-Shape" fill="url(#linearGradient-10)"></path>
            <rect id="Rectangle-39" fill="url(#linearGradient-11)" transform="translate(275.4772, 147.9567) rotate(-2) translate(-275.4772, -147.9567)" x="241.977186" y="136.956749" width="67" height="22"></rect>
            <path d="M253,108.973806 L296,108.973806 C301.656854,108.973806 304.485281,108.973806 306.242641,110.731165 C306.242641,110.731165 306.242641,110.731165 306.242641,110.731165 C308,112.488524 308,115.316951 308,120.973806 L308,130.973806 L241,130.973806 L241,120.973806 C241,115.316951 241,112.488524 242.757359,110.731165 C242.757359,110.731165 242.757359,110.731165 242.757359,110.731165 C244.514719,108.973806 247.343146,108.973806 253,108.973806 Z" id="Rectangle-38" fill="url(#linearGradient-11)" transform="translate(274.5, 119.9738) rotate(-2) translate(-274.5, -119.9738)"></path>
            <path d="M269.059836,41 L276.938808,41 C279.634055,41 281.998549,42.7972182 282.719915,45.3941368 L301.499322,113 L244.499322,113 L263.278728,45.3941368 C264.000094,42.7972182 266.364589,41 269.059836,41 Z" id="Rectangle-37" fill="url(#linearGradient-12)" transform="translate(272.9993, 77) rotate(-2) translate(-272.9993, -77)"></path>
            <path d="M389.986314,149.769645 L396.8836,317.637153 C396.929143,318.7456 396.063791,319.679324 394.955085,319.718041 L331.993539,321.916706 C330.894446,321.955087 329.970574,321.098866 329.925426,320.000031 L323.027128,152.107911 L389.986314,149.769645 Z M358.868203,205.741457 C355.412203,205.741457 352.148203,206.401457 349.076203,207.721457 C346.004203,209.041457 343.328203,210.841457 341.048203,213.121457 C338.768203,215.401457 336.968203,218.077457 335.648203,221.149457 C334.328203,224.221457 333.668203,227.485457 333.668203,230.941457 C333.668203,234.397457 334.328203,237.661457 335.648203,240.733457 C336.968203,243.805457 338.768203,246.481457 341.048203,248.761457 C343.328203,251.041457 346.004203,252.841457 349.076203,254.161457 C352.148203,255.481457 355.412203,256.141457 358.868203,256.141457 C362.324203,256.141457 365.588203,255.481457 368.660203,254.161457 C371.732203,252.841457 374.408203,251.041457 376.688203,248.761457 C378.968203,246.481457 380.768203,243.805457 382.088203,240.733457 C383.408203,237.661457 384.068203,234.397457 384.068203,230.941457 C384.068203,227.485457 383.408203,224.221457 382.088203,221.149457 C380.768203,218.077457 378.968203,215.401457 376.688203,213.121457 C374.408203,210.841457 371.732203,209.041457 368.660203,207.721457 C365.588203,206.401457 362.324203,205.741457 358.868203,205.741457 Z M358.868203,220.861457 C360.260203,220.861457 361.568203,221.125457 362.792203,221.653457 C364.016203,222.181457 365.084203,222.901457 365.996203,223.813457 C366.908203,224.725457 367.628203,225.793457 368.156203,227.017457 C368.684203,228.241457 368.948203,229.549457 368.948203,230.941457 C368.948203,232.333457 368.684203,233.641457 368.156203,234.865457 C367.628203,236.089457 366.908203,237.157457 365.996203,238.069457 C365.084203,238.981457 364.016203,239.701457 362.792203,240.229457 C361.568203,240.757457 360.260203,241.021457 358.868203,241.021457 C357.476203,241.021457 356.168203,240.757457 354.944203,240.229457 C353.720203,239.701457 352.652203,238.981457 351.740203,238.069457 C350.828203,237.157457 350.108203,236.089457 349.580203,234.865457 C349.052203,233.641457 348.788203,232.333457 348.788203,230.941457 C348.788203,229.549457 349.052203,228.241457 349.580203,227.017457 C350.108203,225.793457 350.828203,224.725457 351.740203,223.813457 C352.652203,222.901457 353.720203,222.181457 354.944203,221.653457 C356.168203,221.125457 357.476203,220.861457 358.868203,220.861457 Z" id="Combined-Shape" fill="url(#linearGradient-13)"></path>
            <rect id="Rectangle-35" fill="url(#linearGradient-14)" transform="translate(355.4772, 127.9567) rotate(-2) translate(-355.4772, -127.9567)" x="321.977186" y="116.956749" width="67" height="22"></rect>
            <path d="M333,88.9738056 L376,88.9738056 C381.656854,88.9738056 384.485281,88.9738056 386.242641,90.7311649 C386.242641,90.7311649 386.242641,90.7311649 386.242641,90.7311649 C388,92.4885242 388,95.3169513 388,100.973806 L388,110.973806 L321,110.973806 L321,100.973806 C321,95.3169513 321,92.4885242 322.757359,90.7311649 C322.757359,90.7311649 322.757359,90.7311649 322.757359,90.7311649 C324.514719,88.9738056 327.343146,88.9738056 333,88.9738056 Z" id="Rectangle-34" fill="url(#linearGradient-14)" transform="translate(354.5, 99.9738) rotate(-2) translate(-354.5, -99.9738)"></path>
            <path d="M349.059836,21 L356.938808,21 C359.634055,21 361.998549,22.7972182 362.719915,25.3941368 L381.499322,93 L324.499322,93 L343.278728,25.3941368 C344.000094,22.7972182 346.364589,21 349.059836,21 Z" id="Rectangle-33" fill="url(#linearGradient-15)" transform="translate(352.9993, 57) rotate(-2) translate(-352.9993, -57)"></path>
            <path d="M469.986314,129.769645 L476.882055,294.635731 C476.92844,295.74472 476.062884,296.679355 474.953601,296.718092 L411.992074,298.916757 C410.893556,298.955118 409.969957,298.099783 409.924022,297.001555 L403.027128,132.107911 L469.986314,129.769645 Z M431.348203,206.893457 L418.748203,206.893457 L418.748203,254.917457 L433.796203,254.917457 L433.796203,236.485457 L446.972203,254.917457 L459.644203,254.917457 L459.644203,206.893457 L444.596203,206.893457 L444.596203,225.397457 L431.348203,206.893457 Z" id="Combined-Shape" fill="url(#linearGradient-16)"></path>
            <rect id="Rectangle-31" fill="url(#linearGradient-17)" transform="translate(435.4772, 107.9567) rotate(-2) translate(-435.4772, -107.9567)" x="401.977186" y="96.9567487" width="67" height="22"></rect>
            <path d="M413,68.9738056 L456,68.9738056 C461.656854,68.9738056 464.485281,68.9738056 466.242641,70.7311649 C466.242641,70.7311649 466.242641,70.7311649 466.242641,70.7311649 C468,72.4885242 468,75.3169513 468,80.9738056 L468,90.9738056 L401,90.9738056 L401,80.9738056 C401,75.3169513 401,72.4885242 402.757359,70.7311649 C402.757359,70.7311649 402.757359,70.7311649 402.757359,70.7311649 C404.514719,68.9738056 407.343146,68.9738056 413,68.9738056 Z" id="Rectangle-30" fill="url(#linearGradient-17)" transform="translate(434.5, 79.9738) rotate(-2) translate(-434.5, -79.9738)"></path>
            <path d="M429.059836,1 L436.938808,1 C439.634055,1 441.998549,2.79721823 442.719915,5.39413682 L461.499322,73 L404.499322,73 L423.278728,5.39413682 C424.000094,2.79721823 426.364589,1 429.059836,1 Z" id="Rectangle-29" fill="url(#linearGradient-18)" transform="translate(432.9993, 37) rotate(-2) translate(-432.9993, -37)"></path>
        </g>
    </g>
</svg>